<svg width="105" height="30" viewBox="0 0 105 30" fill="none" xmlns="http://www.w3.org/2000/svg">
<path d="M41.5301 28.9742C39.7466 27.9734 38.8787 26.4704 38.878 24.4631C38.8755 18.1627 38.8713 11.8623 38.88 5.56191C38.8837 2.8337 40.8872 0.72123 43.6168 0.680806C46.5216 0.637784 49.434 0.606773 52.3323 0.768069C55.5458 0.946905 58.478 2.00352 60.7545 4.42677C62.5251 6.31141 63.4114 8.64793 63.8887 11.1534C64.5573 14.6622 64.4618 18.1408 63.2672 21.53C61.6443 26.1347 58.4001 28.7504 53.5722 29.336C52.8246 29.4267 52.0666 29.4616 51.3131 29.4664C48.833 29.4822 46.3519 29.5096 43.8731 29.4502C43.1024 29.4317 42.3379 29.1511 41.5301 28.9742ZM55.199 22.8022C56.0714 22.1685 56.7007 21.3315 57.0874 20.3357C58.3837 16.9982 58.3284 13.6289 57.1506 10.2836C56.3919 8.12886 54.8293 6.72374 52.5867 6.44125C50.523 6.18128 48.417 6.21001 46.3298 6.21352C45.3644 6.21514 44.9673 6.76179 44.9427 7.79998C44.9177 8.8527 44.9349 9.90645 44.9349 10.9598C44.9347 14.6853 44.9282 18.411 44.9388 22.1365C44.9428 23.5344 45.3733 23.958 46.7446 23.9655C48.1977 23.9735 49.651 23.9711 51.1042 23.9664C52.5457 23.9618 53.9009 23.6318 55.199 22.8022Z" fill="#010101"/>
<path d="M71.1978 9.91368C73.4658 8.94584 75.7748 8.83624 78.0664 9.48091C81.3464 10.4037 82.9019 12.9205 83.6042 16.0692C83.809 16.9875 83.9097 17.9653 83.8431 18.9002C83.7504 20.2028 82.6688 21.225 81.3626 21.2559C78.4187 21.3255 75.4727 21.3011 72.5275 21.3147C72.2988 21.3158 72.07 21.3148 71.8429 21.3148C71.7921 23.6946 73.3679 25.3615 75.6601 25.4786C77.1519 25.5549 78.5416 25.2604 79.8508 24.5488C79.9697 24.4842 80.0936 24.4292 80.2151 24.3694C81.2071 23.8809 82.0917 23.9605 82.7426 24.5969C83.4467 25.2855 83.6696 26.4406 83.2508 27.3531C82.9038 28.1092 82.3267 28.636 81.5717 28.9735C79.7818 29.7735 77.8865 30.05 75.9592 29.9446C74.6565 29.8733 73.325 29.725 72.0779 29.3622C69.7878 28.6959 68.1971 27.1067 67.3117 24.9028C65.7602 21.0405 65.6606 17.173 67.5785 13.3795C68.3683 11.8174 69.5675 10.6632 71.1978 9.91368ZM75.5259 13.487C73.3942 13.3498 72.0859 14.9086 71.9005 17.1369C73.8352 17.1369 75.7665 17.1404 77.6978 17.1353C78.5092 17.1331 78.7686 16.7952 78.6033 15.9867C78.3124 14.5632 77.2262 13.6519 75.5259 13.487Z" fill="#020202"/>
<path d="M10.6211 24.4088C11.9932 24.5694 13.3007 24.5227 14.5923 24.1787C16.7233 23.6112 17.8906 22.1249 18.0834 19.7098C18.1097 19.3798 18.1078 19.0469 18.1079 18.7153C18.1093 13.5635 18.2125 8.40857 18.0642 3.26104C17.9922 0.761573 20.5537 -0.278431 22.2441 0.355479C23.5166 0.832675 24.169 1.72259 24.1694 3.10019C24.1709 8.66186 24.1751 14.2235 24.1675 19.7852C24.1638 22.4919 23.5061 24.9552 21.4684 26.8829C19.6991 28.5567 17.5781 29.482 15.1931 29.7737C12.5626 30.0955 9.91451 30.149 7.3431 29.4315C4.09782 28.5261 1.5375 26.7054 0.54115 23.2906C0.187203 22.0776 0.0747335 20.7579 0.0628857 19.485C0.0125848 14.0799 0.13332 8.67177 0.001101 3.2695C-0.0612775 0.720813 2.54099 -0.295474 4.23267 0.376558C5.49955 0.879839 6.10058 1.72749 6.10112 3.15676C6.10309 8.38668 6.09335 13.6166 6.1116 18.8465C6.11417 19.5813 6.15538 20.34 6.33883 21.0455C6.82808 22.9269 8.18034 23.8925 10 24.2884C10.1892 24.3296 10.3796 24.3651 10.6211 24.4088Z" fill="#010101"/>
<path d="M96.7664 19.6055C97.6945 16.7329 98.5994 13.9012 99.5371 11.0806C100.11 9.35609 102.151 8.60908 103.722 9.51168C104.831 10.1482 105.272 11.1753 104.831 12.5705C104.275 14.3271 103.594 16.0443 102.951 17.7721C101.826 20.7927 100.698 23.8126 99.552 26.8251C98.4458 29.732 95.3211 30.8467 92.8296 29.2403C92.0024 28.707 91.4215 27.956 91.0759 27.0449C89.3267 22.4337 87.5944 17.816 85.8599 13.1992C85.7851 13.0002 85.7426 12.7883 85.6922 12.5806C85.2959 10.9487 85.8747 9.74652 87.2699 9.2998C88.8515 8.7934 90.4429 9.50248 90.9752 11.0131C91.543 12.6246 92.049 14.2581 92.5802 15.8826C93.4314 18.4862 94.2809 21.0903 95.1322 23.6939C95.1675 23.8019 95.2141 23.9061 95.2985 24.1224C95.8067 22.5646 96.2819 21.1078 96.7664 19.6055Z" fill="#010101"/>
<path d="M28.6004 20.3179C28.6004 17.4503 28.6005 14.6412 28.6004 11.8321C28.6003 10.412 29.1245 9.68282 30.4913 9.28935C31.589 8.97338 32.6382 9.10435 33.5827 9.78812C34.1339 10.1872 34.4368 10.7296 34.4367 11.4271C34.436 16.8697 34.4413 22.3123 34.4308 27.7549C34.4287 28.8116 33.5529 29.6651 32.269 29.9148C31.468 30.0706 30.6744 30.0024 29.9447 29.6364C29.0928 29.209 28.5759 28.5593 28.5901 27.5161C28.6225 25.1366 28.6004 22.7564 28.6004 20.3179Z" fill="#010101"/>
<path d="M34.7718 5.67077C33.6221 7.53132 31.332 8.10559 29.5369 7.01853C27.8111 5.97344 27.232 3.6417 28.2519 1.84454C29.2577 0.0723485 31.5578 -0.525705 33.4084 0.503774C35.1631 1.47993 35.7758 3.75463 34.7718 5.67077Z" fill="#FDE048"/>
<path d="M45.4425 7.81183L45.4425 7.81183C45.4537 7.33904 45.5502 7.0784 45.667 6.93883C45.7664 6.81997 45.944 6.71417 46.3306 6.71352C46.4968 6.71324 46.6627 6.71281 46.8285 6.71238C48.757 6.70737 50.6595 6.70242 52.5242 6.93733L52.5867 6.44125L52.5242 6.93733C54.5566 7.19334 55.9754 8.4512 56.679 10.4497C57.8208 13.6928 57.8705 16.9385 56.6214 20.1547C56.2706 21.0577 55.7045 21.8137 54.8848 22.4152C53.7141 23.1543 52.4587 23.462 51.1026 23.4664C49.6498 23.4711 48.1983 23.4734 46.7473 23.4655C46.081 23.4619 45.8129 23.3502 45.6838 23.2202C45.5538 23.0892 45.4408 22.815 45.4388 22.1351C45.4311 19.4197 45.4325 16.7046 45.4338 13.9886C45.4343 12.9792 45.4348 11.9696 45.4349 10.9598C45.4349 10.6489 45.4334 10.3402 45.432 10.0329C45.4285 9.28813 45.425 8.55157 45.4425 7.81183Z" stroke="black"/>
</svg>
