<svg width="105" height="30" viewBox="0 0 903 257" fill="none" xmlns="http://www.w3.org/2000/svg">
<path d="M357.149 247.917C341.817 239.371 334.357 226.537 334.35 209.396C334.329 155.596 334.293 101.797 334.367 47.9968C334.4 24.7003 351.622 6.66167 375.086 6.31649C400.056 5.94912 425.092 5.68432 450.006 7.06164C477.63 8.58874 502.836 17.6113 522.405 38.3037C537.625 54.3969 545.244 74.3486 549.347 95.7431C555.094 125.705 554.273 155.409 544.004 184.35C530.053 223.67 502.166 246.005 460.664 251.007C454.238 251.781 447.722 252.079 441.245 252.12C419.926 252.255 398.598 252.489 377.29 251.981C370.664 251.823 364.093 249.427 357.149 247.917ZM474.648 195.213C482.148 189.803 487.557 182.655 490.882 174.152C502.025 145.652 501.549 116.882 491.425 88.3159C484.904 69.9163 471.471 57.9178 452.193 55.5055C434.453 53.2857 416.349 53.531 398.407 53.5609C390.109 53.5748 386.695 58.2427 386.484 67.1079C386.269 76.0972 386.417 85.0953 386.416 94.0896C386.415 125.903 386.36 157.716 386.45 189.529C386.485 201.466 390.185 205.083 401.973 205.147C414.465 205.215 426.957 205.195 439.449 205.155C451.84 205.115 463.49 202.297 474.648 195.213Z" fill="#010101"/>
<path d="M612.177 85.1574C631.673 76.8928 651.522 75.957 671.22 81.4619C699.416 89.3413 712.787 110.833 718.825 137.72C720.585 145.562 721.451 153.911 720.878 161.894C720.081 173.017 710.783 181.746 699.555 182.01C674.249 182.604 648.925 182.396 623.608 182.512C621.641 182.521 619.674 182.513 617.722 182.513C617.286 202.834 630.832 217.068 650.535 218.068C663.359 218.719 675.306 216.205 686.56 210.128C687.581 209.576 688.647 209.107 689.691 208.597C698.219 204.425 705.823 205.105 711.418 210.539C717.471 216.419 719.387 226.283 715.787 234.074C712.804 240.531 707.843 245.029 701.353 247.911C685.967 254.743 669.674 257.104 653.107 256.203C641.908 255.595 630.463 254.328 619.743 251.23C600.056 245.54 586.382 231.971 578.772 213.151C565.435 180.171 564.578 147.145 581.064 114.753C587.854 101.413 598.162 91.558 612.177 85.1574ZM649.382 115.671C631.057 114.499 619.811 127.809 618.218 146.837C634.849 146.837 651.45 146.867 668.052 146.823C675.027 146.805 677.257 143.919 675.836 137.016C673.335 124.86 663.998 117.079 649.382 115.671Z" fill="#020202"/>
<path d="M91.4493 208.932C103.244 210.304 114.483 209.905 125.586 206.968C143.904 202.122 153.939 189.43 155.596 168.807C155.822 165.989 155.806 163.146 155.807 160.315C155.819 116.323 156.706 72.3046 155.432 28.3493C154.813 7.00606 176.831 -1.87465 191.362 3.53838C202.301 7.61321 207.909 15.2123 207.912 26.9758C207.925 74.4675 207.962 121.959 207.896 169.451C207.864 192.564 202.21 213.598 184.694 230.059C169.485 244.352 151.253 252.253 130.75 254.744C108.139 257.491 85.375 257.949 63.2708 251.822C35.3737 244.09 13.3647 228.544 4.79995 199.384C1.75736 189.026 0.790554 177.757 0.688709 166.887C0.256313 120.732 1.29418 74.5521 0.157597 28.4216C-0.37862 6.658 21.9909 -2.02019 36.5329 3.71837C47.4233 8.01595 52.5898 15.2541 52.5945 27.4588C52.6114 72.1177 52.5276 116.777 52.6846 161.435C52.7066 167.71 53.0609 174.189 54.6378 180.213C58.8435 196.278 70.4678 204.523 86.1103 207.904C87.7366 208.256 89.3733 208.559 91.4493 208.932Z" fill="#010101"/>
<path d="M831.969 167.916C839.947 143.387 847.725 119.207 855.787 95.1214C860.715 80.3955 878.257 74.0168 891.765 81.7242C901.291 87.1599 905.089 95.9303 901.293 107.844C896.514 122.844 890.664 137.507 885.132 152.261C875.46 178.054 865.769 203.841 855.915 229.565C846.406 254.388 819.545 263.906 798.127 250.189C791.017 245.635 786.024 239.222 783.053 231.442C768.017 192.067 753.125 152.636 738.215 113.213C737.572 111.513 737.207 109.703 736.773 107.93C733.366 93.9947 738.342 83.7295 750.335 79.9149C763.931 75.5907 777.611 81.6456 782.187 94.545C787.068 108.305 791.418 122.255 795.984 136.127C803.301 158.359 810.603 180.596 817.921 202.827C818.225 203.75 818.626 204.64 819.351 206.487C823.719 193.184 827.804 180.745 831.969 167.916Z" fill="#010101"/>
<path d="M246.003 174C246.003 149.513 246.003 125.526 246.002 101.539C246.002 89.4123 250.508 83.1858 262.257 79.826C271.693 77.1279 280.712 78.2462 288.831 84.085C293.57 87.4927 296.174 92.1245 296.173 98.08C296.166 144.555 296.212 191.03 296.122 237.505C296.104 246.529 288.575 253.817 277.538 255.949C270.653 257.279 263.831 256.697 257.558 253.571C250.236 249.922 245.792 244.374 245.914 235.466C246.192 215.147 246.002 194.822 246.003 174Z" fill="#010101"/>
<path d="M299.052 48.9264C289.169 64.8139 269.484 69.7176 254.052 60.4351C239.217 51.511 234.239 31.6 243.007 16.2538C251.653 1.1209 271.424 -3.98594 287.332 4.80489C302.416 13.1404 307.683 32.5644 299.052 48.9264Z" fill="#FDE048"/>
<path d="M474.367 195.441C463.49 202.297 451.84 205.115 439.449 205.155C426.957 205.195 414.465 205.215 401.973 205.147C390.185 205.083 386.485 201.466 386.45 189.529C386.36 157.716 386.415 125.903 386.416 94.0896C386.417 85.0953 386.269 76.0972 386.484 67.1079C386.695 58.2427 390.109 53.5748 398.407 53.5609C416.349 53.531 434.453 53.2857 452.193 55.5056C471.471 57.9178 484.904 69.9163 491.425 88.316C501.549 116.882 502.025 145.652 490.882 174.152C487.557 182.655 482.148 189.803 474.367 195.441Z" fill="#FDFDFD"/>
<path d="M649.846 115.707C663.998 117.079 673.335 124.86 675.836 137.016C677.257 143.919 675.027 146.805 668.052 146.823C651.451 146.867 634.849 146.837 618.218 146.837C619.811 127.809 631.057 114.499 649.846 115.707Z" fill="#FBFBFB"/>
</svg>
