<svg width="256" height="256" viewBox="0 0 256 256" fill="none" xmlns="http://www.w3.org/2000/svg">
  <style>
    #circle {
      fill: #000000;
    }

    .character {
      fill: #ffffff;
    }
    @media (prefers-color-scheme: dark) {
      #circle {
        fill: #ffffff;
      }

      .character {
        fill: #000000;
      }
    }
  </style>
  <g clip-path="url(#clip0_18_10)">
    <circle id="circle" cx="128" cy="128" r="128"/>
    <path class="character" d="M94.4079 179.794C100.79 180.675 106.873 180.418 112.881 178.533C122.794 175.422 128.224 167.275 129.121 154.037C129.244 152.228 129.235 150.403 129.235 148.586C129.242 120.347 129.722 92.0908 129.032 63.8752C128.697 50.1747 140.613 44.4741 148.476 47.9488C154.396 50.5645 157.43 55.4424 157.432 62.9935C157.439 93.4791 157.459 123.965 157.423 154.45C157.406 169.287 154.347 182.789 144.868 193.356C136.637 202.53 126.771 207.602 115.676 209.201C103.439 210.965 91.1208 211.258 79.159 207.326C64.0624 202.362 52.1522 192.383 47.5173 173.665C45.8708 167.016 45.3476 159.782 45.2925 152.805C45.0585 123.177 45.6202 93.5335 45.0051 63.9216C44.7149 49.9513 56.8203 44.3806 64.6897 48.0643C70.5831 50.823 73.379 55.4693 73.3815 63.3036C73.3906 91.9708 73.3453 120.638 73.4303 149.305C73.4422 153.333 73.6339 157.492 74.4873 161.358C76.7632 171.671 83.0537 176.964 91.5187 179.134C92.3988 179.36 93.2845 179.555 94.4079 179.794Z"/>
    <path class="character" d="M178.044 157.37C178.044 141.652 178.045 126.254 178.044 110.856C178.044 103.072 180.482 99.0754 186.841 96.9187C191.947 95.1868 196.828 95.9046 201.221 99.6526C203.786 101.84 205.195 104.813 205.194 108.636C205.191 138.469 205.216 168.302 205.167 198.135C205.157 203.927 201.083 208.606 195.11 209.975C191.384 210.829 187.692 210.455 184.298 208.448C180.335 206.106 177.931 202.544 177.997 196.826C178.147 183.783 178.044 170.737 178.044 157.37Z"/>
    <path d="M208.46 73.5389C202.832 82.5743 191.623 85.3631 182.836 80.084C174.389 75.0088 171.554 63.6852 176.547 54.9576C181.47 46.3513 192.728 43.447 201.786 48.4465C210.375 53.187 213.374 64.2336 208.46 73.5389Z" fill="#FDE048"/>
  </g>
  <defs>
    <clipPath id="clip0_18_10">
      <rect width="256" height="256" fill="white"/>
    </clipPath>
  </defs>
</svg>
